<svg xmlns="http://www.w3.org/2000/svg" version="1.1" xmlns:xlink="http://www.w3.org/1999/xlink" xmlns:svgjs="http://svgjs.dev/svgjs" width="2000" height="2000" viewBox="0 0 2000 2000"><g transform="matrix(1,0,0,1,-0.28443113772425477,-0.28443113772459583)"><svg viewBox="0 0 334 334" data-background-color="#2f2a29" preserveAspectRatio="xMidYMid meet" height="2000" width="2000" xmlns="http://www.w3.org/2000/svg" xmlns:xlink="http://www.w3.org/1999/xlink"><g id="tight-bounds" transform="matrix(1,0,0,1,0.04749999999998522,0.04750000000001364)"><svg viewBox="0 0 333.90454557049503 333.90454557049503" height="333.90454557049503" width="333.90454557049503"><g><svg></svg></g><g><svg viewBox="0 0 333.90454557049503 333.90454557049503" height="333.90454557049503" width="333.90454557049503"><g><path d="M0 166.952c0-92.205 74.747-166.952 166.952-166.952 92.205 0 166.952 74.747 166.953 166.952 0 92.205-74.747 166.952-166.953 166.953-92.205 0-166.952-74.747-166.952-166.953zM166.952 316.63c82.665 0 149.677-67.013 149.678-149.678 0-82.665-67.013-149.677-149.678-149.677-82.665 0-149.677 67.013-149.677 149.677 0 82.665 67.013 149.677 149.677 149.678z" data-fill-palette-color="tertiary" fill="#e84613" stroke="transparent"></path><ellipse rx="160.27418187383762" ry="160.27418187383762" cx="166.95227278524752" cy="166.95227278524752" fill="#e84613" stroke="transparent" stroke-width="0" fill-opacity="1" data-fill-palette-color="tertiary"></ellipse></g><g transform="matrix(1,0,0,1,86.32960436982833,71.17305217166896)"><svg viewBox="0 0 161.24533683083837 191.55844122715712" height="191.55844122715712" width="161.24533683083837"><g><svg viewBox="0 0 161.24533683083837 191.55844122715712" height="191.55844122715712" width="161.24533683083837"><g><svg viewBox="0 0 161.24533683083837 191.55844122715712" height="191.55844122715712" width="161.24533683083837"><g><svg viewBox="0 0 161.24533683083837 191.55844122715712" height="191.55844122715712" width="161.24533683083837"><g id="textblocktransform"><svg viewBox="0 0 161.24533683083837 191.55844122715712" height="191.55844122715712" width="161.24533683083837" id="textblock"><g><svg viewBox="0 0 161.24533683083837 191.55844122715712" height="191.55844122715712" width="161.24533683083837"><g transform="matrix(1,0,0,1,0,0)"><svg width="161.24533683083837" viewBox="1.88 -36.01 30.91 36.72" height="191.55844122715712" data-palette-color="#2f2a29"><path d="M32.79-10.74L32.79-10.74Q32.79-8.47 32.21-6.74 31.64-5 30.6-3.74 29.57-2.47 28.15-1.61 26.73-0.76 25.06-0.24 23.39 0.27 21.52 0.49 19.65 0.71 17.72 0.71L17.72 0.71Q15.19 0.71 13.04 0.33 10.89-0.05 9-0.87 7.1-1.68 5.36-2.98 3.61-4.27 1.88-6.13L1.88-6.13 6.86-11.18Q7.54-9.5 8.74-8.07 9.94-6.64 11.36-5.62 12.79-4.59 14.33-4 15.87-3.42 17.24-3.42L17.24-3.42Q18.85-3.42 20.26-3.65 21.68-3.88 22.73-4.42 23.78-4.96 24.38-5.85 24.98-6.74 24.98-8.08L24.98-8.08Q24.98-9.11 24.51-9.84 24.05-10.57 23.3-11.1 22.56-11.62 21.61-11.99 20.65-12.35 19.67-12.61 18.68-12.87 17.72-13.07 16.77-13.28 16.04-13.5L16.04-13.5Q14.6-13.92 13.04-14.39 11.47-14.87 9.96-15.48 8.45-16.09 7.09-16.88 5.74-17.68 4.71-18.76 3.69-19.85 3.08-21.28 2.47-22.71 2.47-24.56L2.47-24.56Q2.47-26.78 3.02-28.5 3.56-30.22 4.57-31.49 5.57-32.76 6.93-33.63 8.3-34.5 9.94-35.02 11.57-35.55 13.42-35.78 15.26-36.01 17.19-36.01L17.19-36.01Q19.82-36.01 21.98-35.52 24.15-35.03 25.98-34.13 27.81-33.23 29.33-31.97 30.86-30.71 32.2-29.17L32.2-29.17 27.22-24.12Q26.64-25.88 25.6-27.29 24.56-28.71 23.29-29.72 22.02-30.74 20.63-31.29 19.24-31.84 17.94-31.84L17.94-31.84Q16.26-31.84 14.84-31.6 13.43-31.37 12.41-30.85 11.4-30.32 10.84-29.43 10.28-28.54 10.28-27.22L10.28-27.22Q10.28-26.17 10.69-25.44 11.11-24.71 11.8-24.19 12.5-23.68 13.38-23.35 14.26-23.02 15.2-22.78 16.14-22.53 17.05-22.35 17.97-22.17 18.73-21.95L18.73-21.95Q20.19-21.53 21.8-21.07 23.41-20.61 24.98-19.98 26.54-19.36 27.95-18.55 29.37-17.75 30.44-16.64 31.52-15.53 32.15-14.07 32.79-12.62 32.79-10.74Z" opacity="1" transform="matrix(1,0,0,1,0,0)" fill="#2f2a29" class="wordmark-text-0" data-fill-palette-color="quaternary" id="text-0"></path></svg></g></svg></g></svg></g></svg></g><g></g></svg></g></svg></g></svg></g></svg></g><defs></defs></svg><rect width="333.90454557049503" height="333.90454557049503" fill="none" stroke="none" visibility="hidden"></rect></g></svg></g></svg>